<svg width="34" height="28" viewBox="0 0 34 28" fill="none" xmlns="http://www.w3.org/2000/svg">
  <path class="logo--mark-3" d="M25.0895 19.7882C25.7699 20.5353 26.4859 21.2424 27.2285 21.9227C27.3219 22.0295 27.4108 22.1451 27.5131 22.2474C28.7805 23.5147 30.0568 24.7688 31.3197 26.0406C31.92 26.6498 32.5693 27.2146 33.0985 27.8816H23.8933C23.7999 27.7705 23.711 27.6548 23.6087 27.5526C22.0997 26.0525 20.5892 24.5479 19.0773 23.0389C13.9277 17.9042 8.77667 12.7695 3.62415 7.63472C2.42348 6.43849 1.25838 5.21114 0.00878906 4.07717V0.0437953C1.61413 0.0437953 3.22393 0.0437953 4.83372 0.0437953C4.96162 0.0391645 5.08902 0.0621944 5.20721 0.111312C5.3254 0.16043 5.4316 0.234478 5.51855 0.328399C9.76685 4.56188 14.0181 8.79537 18.2724 13.0289C18.3556 13.1106 18.4432 13.1878 18.5347 13.2601C19.7843 14.5186 21.0295 15.786 22.2879 17.04C23.2129 17.965 24.1557 18.8721 25.0895 19.7882Z" fill="white"></path>
  <path class="logo--mark-5" d="M33.1118 27.8809C32.5693 27.2139 31.9201 26.6491 31.3331 26.0399C30.0701 24.768 28.7939 23.514 27.5265 22.2466C27.4242 22.1443 27.3353 22.0287 27.2419 21.922C27.2419 21.7308 27.2419 21.544 27.2419 21.3528C27.2419 14.8662 27.2419 8.37662 27.2419 1.88409C27.2362 1.53999 27.3636 1.207 27.5976 0.954677C27.8462 0.616123 28.1814 0.350753 28.5679 0.186433C28.9545 0.0221123 29.3781 -0.0350944 29.7944 0.0208199C30.9729 0.109759 32.1646 0.0563954 33.352 0.0208199C33.7166 0.0208199 33.7967 0.118653 33.7967 0.465514C33.7967 6.97583 33.7967 13.4758 33.7967 19.9653C33.7967 22.4289 33.7967 24.894 33.7967 27.3606C33.7967 27.534 33.7967 27.7075 33.8234 27.8809H33.1118Z" fill="white" fill-opacity="0.5"></path>
  <path class="logo--mark-5" d="M33.1118 27.8809C32.5693 27.2139 31.9201 26.6491 31.3331 26.0399C30.0701 24.768 28.7939 23.514 27.5265 22.2466C27.4242 22.1443 27.3353 22.0287 27.2419 21.922C27.2419 21.7308 27.2419 21.544 27.2419 21.3528C27.2419 14.8662 27.2419 8.37662 27.2419 1.88409C27.2362 1.53999 27.3636 1.207 27.5976 0.954677C27.8462 0.616123 28.1814 0.350753 28.5679 0.186433C28.9545 0.0221123 29.3781 -0.0350944 29.7944 0.0208199C30.9729 0.109759 32.1646 0.0563954 33.352 0.0208199C33.7166 0.0208199 33.7967 0.118653 33.7967 0.465514C33.7967 6.97583 33.7967 13.4758 33.7967 19.9653C33.7967 22.4289 33.7967 24.894 33.7967 27.3606C33.7967 27.534 33.7967 27.7075 33.8234 27.8809H33.1118Z" fill="white" fill-opacity="0.5"></path>
  <path class="logo--mark-2" d="M0 16.3229V7.1311C0.137855 7.16223 0.209006 7.2823 0.297945 7.37569L3.13954 10.1817C8.37507 15.4024 13.6106 20.6231 18.8461 25.8438C19.5132 26.5109 20.2202 27.1468 20.8206 27.8805H11.5976C11.5976 27.7471 11.4687 27.6893 11.3886 27.6093C8.16606 24.3897 4.93758 21.1731 1.70318 17.9594C1.16656 17.3824 0.597942 16.8361 0 16.3229H0Z" fill="white"></path>
  <path class="logo--mark-1" d="M8.52478 27.8804C5.78102 27.8804 3.03726 27.8804 0.293498 27.8804C0.0489163 27.8804 0 27.8315 0 27.5913C0 24.8609 0 22.126 0 19.3867C0.182324 19.3867 0.257922 19.5601 0.369096 19.6669C2.99872 22.2787 5.62389 24.898 8.24462 27.5246C8.35135 27.618 8.51589 27.6936 8.52478 27.8804Z" fill="white"></path>
  <path class="logo--mark-4" d="M25.0888 19.7874C24.1549 18.8714 23.2122 17.9642 22.2872 17.0392C21.0287 15.7852 19.7836 14.5178 18.534 13.2593C18.534 12.281 18.534 11.3071 18.534 10.3288C18.5242 10.2288 18.5367 10.1279 18.5705 10.0334C18.6043 9.9388 18.6587 9.85289 18.7297 9.78181L24.8531 3.68951C24.902 3.64059 24.9643 3.60057 25.0087 3.56055C25.1466 3.60946 25.1066 3.71174 25.1066 3.78734C25.1066 9.04955 25.1066 14.3103 25.1066 19.5695C25.1052 19.6425 25.0993 19.7152 25.0888 19.7874V19.7874Z" fill="white" fill-opacity="0.5"></path>
  <path class="logo--mark-4" d="M25.0888 19.7874C24.1549 18.8714 23.2122 17.9642 22.2872 17.0392C21.0287 15.7852 19.7836 14.5178 18.534 13.2593C18.534 12.281 18.534 11.3071 18.534 10.3288C18.5242 10.2288 18.5367 10.1279 18.5705 10.0334C18.6043 9.9388 18.6587 9.85289 18.7297 9.78181L24.8531 3.68951C24.902 3.64059 24.9643 3.60057 25.0087 3.56055C25.1466 3.60946 25.1066 3.71174 25.1066 3.78734C25.1066 9.04955 25.1066 14.3103 25.1066 19.5695C25.1052 19.6425 25.0993 19.7152 25.0888 19.7874V19.7874Z" fill="white" fill-opacity="0.5"></path>
</svg>
